<svg width="20" height="20" viewBox="0 0 20 20" fill="none" xmlns="http://www.w3.org/2000/svg">
<g clip-path="url(#clip0_16472_2483)">
<path d="M18.75 9.37012H1.25V10.6201H18.75V9.37012Z" fill="black"/>
<path d="M11.25 4.37012H1.25V5.62012H11.25V4.37012Z" fill="black"/>
<path d="M15.0001 6.88012C16.0384 6.88012 16.8801 6.03841 16.8801 5.00012C16.8801 3.96182 16.0384 3.12012 15.0001 3.12012C13.9618 3.12012 13.1201 3.96182 13.1201 5.00012C13.1201 6.03841 13.9618 6.88012 15.0001 6.88012Z" fill="black"/>
<path d="M15 3.75C15.69 3.75 16.25 4.31 16.25 5C16.25 5.69 15.69 6.25 15 6.25C14.31 6.25 13.75 5.69 13.75 5C13.75 4.31 14.31 3.75 15 3.75ZM15 2.5C13.62 2.5 12.5 3.62 12.5 5C12.5 6.38 13.62 7.5 15 7.5C16.38 7.5 17.5 6.38 17.5 5C17.5 3.62 16.38 2.5 15 2.5Z" fill="black"/>
<path d="M5.62023 11.8801C6.65853 11.8801 7.50023 11.0384 7.50023 10.0001C7.50023 8.96182 6.65853 8.12012 5.62023 8.12012C4.58194 8.12012 3.74023 8.96182 3.74023 10.0001C3.74023 11.0384 4.58194 11.8801 5.62023 11.8801Z" fill="white"/>
<path d="M5.62012 8.75C6.31012 8.75 6.87012 9.31 6.87012 10C6.87012 10.69 6.31012 11.25 5.62012 11.25C4.93012 11.25 4.37012 10.69 4.37012 10C4.37012 9.31 4.93012 8.75 5.62012 8.75ZM5.62012 7.5C4.24012 7.5 3.12012 8.62 3.12012 10C3.12012 11.38 4.24012 12.5 5.62012 12.5C7.00012 12.5 8.12012 11.38 8.12012 10C8.12012 8.62 7.00012 7.5 5.62012 7.5Z" fill="black"/>
<path d="M18.75 14.3701H1.25V15.6201H18.75V14.3701Z" fill="black"/>
<path d="M11.2501 16.8801C12.2884 16.8801 13.1301 16.0384 13.1301 15.0001C13.1301 13.9618 12.2884 13.1201 11.2501 13.1201C10.2118 13.1201 9.37012 13.9618 9.37012 15.0001C9.37012 16.0384 10.2118 16.8801 11.2501 16.8801Z" fill="white"/>
<path d="M11.25 13.75C11.94 13.75 12.5 14.31 12.5 15C12.5 15.69 11.94 16.25 11.25 16.25C10.56 16.25 10 15.69 10 15C10 14.31 10.56 13.75 11.25 13.75ZM11.25 12.5C9.87 12.5 8.75 13.62 8.75 15C8.75 16.38 9.87 17.5 11.25 17.5C12.63 17.5 13.75 16.38 13.75 15C13.75 13.62 12.63 12.5 11.25 12.5Z" fill="black"/>
</g>
<defs>
<clipPath id="clip0_16472_2483">
<rect width="20" height="20" fill="white"/>
</clipPath>
</defs>
</svg>
