<svg width="20" height="20" viewBox="0 0 20 20" fill="none" xmlns="http://www.w3.org/2000/svg">
<g clip-path="url(#clip0_20403_2560)">
<path d="M16.875 10C16.875 13.7937 13.7937 16.875 10 16.875C6.20625 16.875 3.125 13.7937 3.125 10C3.125 6.20625 6.20625 3.125 10 3.125C12.3375 3.125 14.5062 4.325 15.7625 6.25H12.5V7.5H17.5V2.5H16.25V4.81875C14.725 2.9875 12.4438 1.875 10 1.875C5.51875 1.875 1.875 5.51875 1.875 10C1.875 14.4812 5.51875 18.125 10 18.125C14.4812 18.125 18.125 14.4812 18.125 10H16.875Z" fill="black"/>
</g>
<defs>
<clipPath id="clip0_20403_2560">
<rect width="20" height="20" fill="white"/>
</clipPath>
</defs>
</svg>
