<svg width="16" height="16" viewBox="0 0 16 16" fill="none" xmlns="http://www.w3.org/2000/svg">
<g clip-path="url(#clip0_23976_1524)">
<path d="M3.7096 3.71033C3.88859 3.53133 4.1695 3.5163 4.3655 3.66544L4.41673 3.71016L7.83504 7.12735L11.2542 3.70821C11.4494 3.51295 11.766 3.51295 11.9613 3.70821C12.1403 3.8872 12.1552 4.16816 12.0061 4.36412L11.9613 4.41531L8.54215 7.83446L11.9604 11.2508C12.1557 11.446 12.1558 11.7626 11.9605 11.9579C11.7815 12.1369 11.5006 12.1519 11.3046 12.0028L11.2534 11.958L7.83504 8.54156L4.41783 11.9588C4.22257 12.154 3.90598 12.154 3.71073 11.9588C3.53173 11.7798 3.51681 11.4988 3.66596 11.3028L3.71073 11.2517L7.12794 7.83446L3.70976 4.41741C3.51445 4.2222 3.51434 3.90558 3.7096 3.71033Z" fill="#717171"/>
</g>
<defs>
<clipPath id="clip0_23976_1524">
<rect width="16" height="16" fill="white"/>
</clipPath>
</defs>
</svg>
