<svg width="151" height="22" viewBox="0 0 151 22" fill="none" xmlns="http://www.w3.org/2000/svg">
<g clip-path="url(#clip0_24205_1999)">
<path d="M8.09186 0.208008H0V21.7877H5.39599V16.3917H8.09186C12.5623 16.3917 16.1837 12.7703 16.1837 8.29986C16.1837 3.82939 12.5623 0.208008 8.09186 0.208008ZM7.82439 11.2674H5.39599V5.33228H7.82439C9.4589 5.33228 10.792 6.66536 10.792 8.29986C10.792 9.93437 9.4589 11.2674 7.82439 11.2674Z" fill="#1E1E1E"/>
<path d="M98.7622 0.208008V21.7877H112.072V16.6634H104.158V13.56H110.633V8.43572H104.158V5.33653H112.072V0.208008H98.7622Z" fill="#1E1E1E"/>
<path d="M88.8917 0.208008H80.7998V21.7877H86.1958V16.3917H88.8917C93.3621 16.3917 96.9835 12.7703 96.9835 8.29986C96.9835 3.82939 93.3579 0.208008 88.8917 0.208008ZM88.62 11.2674H86.1915V5.33228H88.62C90.2545 5.33228 91.5875 6.66536 91.5875 8.29986C91.5875 9.93437 90.2545 11.2674 88.62 11.2674Z" fill="#1E1E1E"/>
<path d="M45.7024 0C39.6271 0 34.7024 4.92474 34.7024 11C34.7024 17.0753 39.6271 22 45.7024 22C51.7777 22 56.7024 17.0753 56.7024 11C56.7024 4.92474 51.7777 0 45.7024 0ZM45.7024 16.9012C42.4461 16.9012 40.1111 14.0822 40.1111 11C40.1111 7.91779 42.4461 5.0988 45.7024 5.0988C48.9587 5.0988 51.2937 7.91779 51.2937 11C51.2937 14.0822 48.9587 16.9012 45.7024 16.9012Z" fill="#1E1E1E"/>
<path d="M113.337 11.0001C113.337 17.0583 118.249 21.9703 124.307 21.9703C125.33 21.9703 126.324 21.826 127.262 21.5628V15.997C126.421 16.5531 125.42 16.8843 124.307 16.8843C121.059 16.8843 118.733 14.0695 118.733 10.9958C118.733 7.9221 121.059 5.10736 124.307 5.10736C125.42 5.10736 126.426 5.43851 127.262 5.99466V0.43735C126.32 0.174131 125.33 0.0297852 124.307 0.0297852C118.249 0.0297852 113.337 4.94179 113.337 11.0001Z" fill="#1E1E1E"/>
<path d="M136.212 5.75268C137.264 4.69981 140.818 6.00317 140.818 6.00317V0.437362C140.818 0.437362 138.491 -0.140022 135.855 0.029797C132.234 0.220843 129.292 2.70444 129.292 6.36828C129.292 11.0001 135.88 14.4941 134.131 16.2475C133.04 17.3386 129.33 15.997 129.33 15.997V21.5628C129.33 21.5628 131.44 22.1274 134.492 21.9704C138.114 21.7793 141.056 19.2957 141.056 15.6319C141.056 11.0001 134.535 7.43389 136.216 5.75268H136.212Z" fill="#1E1E1E"/>
<path d="M73.3913 5.75268C74.4442 4.69981 77.9976 6.00317 77.9976 6.00317V0.437362C77.9976 0.437362 75.6711 -0.140022 73.0347 0.029797C69.4133 0.220843 66.4712 2.70444 66.4712 6.36828C66.4712 11.0001 73.0602 14.4941 71.311 16.2475C70.2199 17.3386 66.5094 15.997 66.5094 15.997V21.5628C66.5094 21.5628 68.6194 22.1274 71.6719 21.9704C75.2933 21.7793 78.2354 19.2957 78.2354 15.6319C78.2354 11.0001 71.7143 7.43389 73.3955 5.75268H73.3913Z" fill="#1E1E1E"/>
<path d="M28.6018 21.7877H34.8808L29.574 14.2308C31.7561 12.9019 33.2166 10.5118 33.2166 7.77343C33.2166 3.59589 29.8287 0.208008 25.6512 0.208008H18.0942V21.7877H23.4902V15.3388H24.0761L28.606 21.7877H28.6018ZM24.6323 5.33653C26.2668 5.33653 27.5998 6.66961 27.5998 8.30411C27.5998 9.93861 26.2668 11.2717 24.6323 11.2717H23.4902V5.33653H24.6323Z" fill="#1E1E1E"/>
<path d="M64.6796 9.25537H58.5364V13.2801H64.6796V9.25537Z" fill="#1E1E1E"/>
<path d="M146.982 0.208008C144.995 0.208008 143.386 1.81704 143.386 3.80392C143.386 5.79079 144.995 7.39983 146.982 7.39983C148.969 7.39983 150.578 5.79079 150.578 3.80392C150.578 1.81704 148.969 0.208008 146.982 0.208008ZM146.982 6.68659C145.39 6.68659 144.104 5.39597 144.104 3.80392C144.104 2.21187 145.394 0.921246 146.982 0.921246C148.574 0.921246 149.861 2.21187 149.861 3.80392C149.861 5.39597 148.57 6.68659 146.982 6.68659Z" fill="#1E1E1E"/>
<path d="M148.587 3.10776C148.587 2.32235 148.052 1.89355 147.25 1.89355H145.675V5.71447H146.464V4.288H146.88L147.827 5.71447H148.723L147.717 4.23281C148.252 4.1012 148.587 3.71486 148.587 3.10776ZM147.199 3.63844H146.464V2.57283H147.199C147.598 2.57283 147.802 2.7851 147.802 3.10776C147.802 3.42617 147.598 3.63844 147.199 3.63844Z" fill="#1E1E1E"/>
</g>
<defs>
<clipPath id="clip0_24205_1999">
<rect width="150.578" height="22" fill="white"/>
</clipPath>
</defs>
</svg>
