<svg width="154" height="22" viewBox="0 0 154 22" fill="none" xmlns="http://www.w3.org/2000/svg">
<g clip-path="url(#clip0_24205_1656)">
<path d="M10.0919 0.208008H2V21.7877H7.39599V16.3917H10.0919C14.5623 16.3917 18.1837 12.7703 18.1837 8.29986C18.1837 3.82939 14.5623 0.208008 10.0919 0.208008ZM9.82439 11.2674H7.39599V5.33228H9.82439C11.4589 5.33228 12.792 6.66536 12.792 8.29986C12.792 9.93437 11.4589 11.2674 9.82439 11.2674Z" fill="white"/>
<path d="M100.762 0.208008V21.7877H114.072V16.6634H106.158V13.56H112.633V8.43572H106.158V5.33653H114.072V0.208008H100.762Z" fill="white"/>
<path d="M90.8917 0.208008H82.7998V21.7877H88.1958V16.3917H90.8917C95.3621 16.3917 98.9835 12.7703 98.9835 8.29986C98.9835 3.82939 95.3579 0.208008 90.8917 0.208008ZM90.62 11.2674H88.1915V5.33228H90.62C92.2545 5.33228 93.5875 6.66536 93.5875 8.29986C93.5875 9.93437 92.2545 11.2674 90.62 11.2674Z" fill="white"/>
<path d="M47.7024 0C41.6271 0 36.7024 4.92474 36.7024 11C36.7024 17.0753 41.6271 22 47.7024 22C53.7777 22 58.7024 17.0753 58.7024 11C58.7024 4.92474 53.7777 0 47.7024 0ZM47.7024 16.9012C44.4461 16.9012 42.1111 14.0822 42.1111 11C42.1111 7.91779 44.4461 5.0988 47.7024 5.0988C50.9587 5.0988 53.2937 7.91779 53.2937 11C53.2937 14.0822 50.9587 16.9012 47.7024 16.9012Z" fill="white"/>
<path d="M115.337 11.0001C115.337 17.0583 120.249 21.9703 126.307 21.9703C127.33 21.9703 128.324 21.826 129.262 21.5628V15.997C128.421 16.5531 127.42 16.8843 126.307 16.8843C123.059 16.8843 120.733 14.0695 120.733 10.9958C120.733 7.9221 123.059 5.10736 126.307 5.10736C127.42 5.10736 128.426 5.43851 129.262 5.99466V0.43735C128.32 0.174131 127.33 0.0297852 126.307 0.0297852C120.249 0.0297852 115.337 4.94179 115.337 11.0001Z" fill="white"/>
<path d="M138.212 5.75268C139.264 4.69981 142.818 6.00317 142.818 6.00317V0.437362C142.818 0.437362 140.491 -0.140022 137.855 0.029797C134.234 0.220843 131.292 2.70444 131.292 6.36828C131.292 11.0001 137.88 14.4941 136.131 16.2475C135.04 17.3386 131.33 15.997 131.33 15.997V21.5628C131.33 21.5628 133.44 22.1274 136.492 21.9704C140.114 21.7793 143.056 19.2957 143.056 15.6319C143.056 11.0001 136.535 7.43389 138.216 5.75268H138.212Z" fill="white"/>
<path d="M75.3913 5.75268C76.4442 4.69981 79.9976 6.00317 79.9976 6.00317V0.437362C79.9976 0.437362 77.6711 -0.140022 75.0347 0.029797C71.4133 0.220843 68.4712 2.70444 68.4712 6.36828C68.4712 11.0001 75.0602 14.4941 73.311 16.2475C72.2199 17.3386 68.5094 15.997 68.5094 15.997V21.5628C68.5094 21.5628 70.6194 22.1274 73.6719 21.9704C77.2933 21.7793 80.2354 19.2957 80.2354 15.6319C80.2354 11.0001 73.7143 7.43389 75.3955 5.75268H75.3913Z" fill="white"/>
<path d="M30.6018 21.7877H36.8808L31.574 14.2308C33.7561 12.9019 35.2166 10.5118 35.2166 7.77343C35.2166 3.59589 31.8287 0.208008 27.6512 0.208008H20.0942V21.7877H25.4902V15.3388H26.0761L30.606 21.7877H30.6018ZM26.6323 5.33653C28.2668 5.33653 29.5998 6.66961 29.5998 8.30411C29.5998 9.93861 28.2668 11.2717 26.6323 11.2717H25.4902V5.33653H26.6323Z" fill="white"/>
<path d="M66.6796 9.25537H60.5364V13.2801H66.6796V9.25537Z" fill="white"/>
<path d="M148.982 0.208008C146.995 0.208008 145.386 1.81704 145.386 3.80392C145.386 5.79079 146.995 7.39983 148.982 7.39983C150.969 7.39983 152.578 5.79079 152.578 3.80392C152.578 1.81704 150.969 0.208008 148.982 0.208008ZM148.982 6.68659C147.39 6.68659 146.104 5.39597 146.104 3.80392C146.104 2.21187 147.394 0.921246 148.982 0.921246C150.574 0.921246 151.861 2.21187 151.861 3.80392C151.861 5.39597 150.57 6.68659 148.982 6.68659Z" fill="white"/>
<path d="M150.587 3.10776C150.587 2.32235 150.052 1.89355 149.25 1.89355H147.675V5.71447H148.464V4.288H148.88L149.827 5.71447H150.723L149.717 4.23281C150.252 4.1012 150.587 3.71486 150.587 3.10776ZM149.199 3.63844H148.464V2.57283H149.199C149.598 2.57283 149.802 2.7851 149.802 3.10776C149.802 3.42617 149.598 3.63844 149.199 3.63844Z" fill="white"/>
</g>
<defs>
<clipPath id="clip0_24205_1656">
<rect width="150.578" height="22" fill="white" transform="translate(2)"/>
</clipPath>
</defs>
</svg>
