<svg width="24" height="24" viewBox="0 0 24 24" fill="none" xmlns="http://www.w3.org/2000/svg">
<g clip-path="url(#clip0_12847_1357)">
<g clip-path="url(#clip1_12847_1357)">
<path d="M12 8.25C12.825 8.25 13.5 8.925 13.5 9.75C13.5 10.575 12.825 11.25 12 11.25C11.175 11.25 10.5 10.575 10.5 9.75C10.5 8.925 11.175 8.25 12 8.25ZM12 6.75C10.3425 6.75 9 8.0925 9 9.75C9 11.4075 10.3425 12.75 12 12.75C13.6575 12.75 15 11.4075 15 9.75C15 8.0925 13.6575 6.75 12 6.75Z" fill="#1E1E1E"/>
<path d="M12 1.5C6.2025 1.5 1.5 6.2025 1.5 12C1.5 17.7975 6.2025 22.5 12 22.5C17.7975 22.5 22.5 17.7975 22.5 12C22.5 6.2025 17.7975 1.5 12 1.5ZM12 3C16.965 3 21 7.035 21 12C21 13.875 20.4225 15.6225 19.4325 17.07C17.3775 15.255 14.775 14.25 12 14.25C9.225 14.25 6.6225 15.2475 4.5675 17.07C3.5775 15.6225 3 13.8825 3 12C3 7.035 7.035 3 12 3ZM12 21C9.4575 21 7.155 19.935 5.52 18.225C7.305 16.6275 9.5775 15.75 12 15.75C14.4225 15.75 16.695 16.6275 18.48 18.225C16.845 19.9275 14.5425 21 12 21Z" fill="#1E1E1E"/>
</g>
</g>
<defs>
<clipPath id="clip0_12847_1357">
<rect width="24" height="24" fill="white"/>
</clipPath>
<clipPath id="clip1_12847_1357">
<rect width="24" height="24" fill="white"/>
</clipPath>
</defs>
</svg>
