<svg width="24" height="24" viewBox="0 0 24 24" fill="none" xmlns="http://www.w3.org/2000/svg">
<g clip-path="url(#clip0_12847_1341)">
<g clip-path="url(#clip1_12847_1341)">
<path d="M22.6575 21.5925L18.6525 17.5875C21.9375 13.755 21.78 7.9875 18.15 4.3575C16.245 2.4525 13.7475 1.5 11.2575 1.5C8.76754 1.5 6.27004 2.4525 4.36504 4.3575C0.54754 8.16 0.54754 14.34 4.35754 18.1425C6.26254 20.0475 8.76004 21 11.25 21C13.5075 21 15.765 20.2125 17.5875 18.645L21.5925 22.65L22.65 21.5925H22.6575ZM11.25 19.5C9.04504 19.5 6.97504 18.645 5.41504 17.085C3.85504 15.525 3.00004 13.455 3.00004 11.25C3.00004 9.045 3.85504 6.975 5.41504 5.415C6.97504 3.855 9.04504 3 11.25 3C13.455 3 15.525 3.855 17.085 5.415C20.3025 8.6325 20.3025 13.8675 17.085 17.085C15.525 18.645 13.455 19.5 11.25 19.5Z" fill="#1E1E1E"/>
</g>
</g>
<defs>
<clipPath id="clip0_12847_1341">
<rect width="24" height="24" fill="white"/>
</clipPath>
<clipPath id="clip1_12847_1341">
<rect width="24" height="24" fill="white"/>
</clipPath>
</defs>
</svg>
